<mxfile host="app.diagrams.net" modified="2023-07-09T18:23:39.840Z" agent="Mozilla/5.0 (Macintosh; Intel Mac OS X 10_15_7) AppleWebKit/537.36 (KHTML, like Gecko) Chrome/108.0.0.0 Safari/537.36" version="21.6.1" etag="_NVkHfZ7Vre95nrsEb5M" type="github">
  <diagram name="Page-1" id="j9WZfL7gWPpmPizEeYLI">
    <mxGraphModel>
      <root>
        <mxCell id="0" />
        <mxCell id="1" parent="0" />
      </root>
    </mxGraphModel>
  </diagram>
</mxfile>
